<?xml version="1.0" encoding="utf-8"?>
<!-- Generator: Adobe Illustrator 24.3.0, SVG Export Plug-In . SVG Version: 6.00 Build 0)  -->
<svg version="1.1" id="Calque_1" xmlns="http://www.w3.org/2000/svg" xmlns:xlink="http://www.w3.org/1999/xlink" x="0px" y="0px"
	 viewBox="0 0 24 24" style="enable-background:new 0 0 24 24;" xml:space="preserve">
<style type="text/css">
	.st0{fill:none;stroke:#000000;stroke-width:2;stroke-linecap:round;stroke-linejoin:round;}
</style>
<path class="st0" d="M14.5,10C13.7,10,13,9.3,13,8.5v-5C13,2.7,13.7,2,14.5,2S16,2.7,16,3.5v5C16,9.3,15.3,10,14.5,10z"/>
<path class="st0" d="M20.5,10H19V8.5C19,7.7,19.7,7,20.5,7S22,7.7,22,8.5S21.3,10,20.5,10z"/>
<path class="st0" d="M9.5,14c0.8,0,1.5,0.7,1.5,1.5v5c0,0.8-0.7,1.5-1.5,1.5S8,21.3,8,20.5v-5C8,14.7,8.7,14,9.5,14z"/>
<path class="st0" d="M3.5,14H5v1.5C5,16.3,4.3,17,3.5,17S2,16.3,2,15.5S2.7,14,3.5,14z"/>
<path class="st0" d="M14,14.5c0-0.8,0.7-1.5,1.5-1.5h5c0.8,0,1.5,0.7,1.5,1.5S21.3,16,20.5,16h-5C14.7,16,14,15.3,14,14.5z"/>
<path class="st0" d="M15.5,19H14v1.5c0,0.8,0.7,1.5,1.5,1.5s1.5-0.7,1.5-1.5S16.3,19,15.5,19z"/>
<path class="st0" d="M10,9.5C10,8.7,9.3,8,8.5,8h-5C2.7,8,2,8.7,2,9.5S2.7,11,3.5,11h5C9.3,11,10,10.3,10,9.5z"/>
<path class="st0" d="M8.5,5H10V3.5C10,2.7,9.3,2,8.5,2S7,2.7,7,3.5S7.7,5,8.5,5z"/>
</svg>
